<svg width="24" height="24" viewBox="0 0 24 24" fill="none" xmlns="http://www.w3.org/2000/svg">
<path d="M3 5.4C3 5.08483 3.06208 4.77274 3.18269 4.48156C3.3033 4.19038 3.48008 3.9258 3.70294 3.70294C4.15303 3.25286 4.76348 3 5.4 3H18.6C19.2365 3 19.847 3.25286 20.2971 3.70294C20.7471 4.15303 21 4.76348 21 5.4V5.4C21 5.55913 20.9368 5.71174 20.8243 5.82426C20.7117 5.93679 20.5591 6 20.4 6H3.6C3.44087 6 3.28826 5.93679 3.17574 5.82426C3.06321 5.71174 3 5.55913 3 5.4V5.4Z" stroke="white" stroke-width="2" stroke-linecap="round" stroke-linejoin="round"/>
<path d="M5 6H19L17.445 20.218C17.3913 20.7077 17.1587 21.1604 16.7919 21.4893C16.425 21.8181 15.9497 22 15.457 22H8.543C8.05033 22 7.575 21.8181 7.20814 21.4893C6.84128 21.1604 6.6087 20.7077 6.555 20.218L5 6Z" stroke="white" stroke-width="2" stroke-linecap="round" stroke-linejoin="round"/>
<path d="M6.31299 18L5.43799 10H18.563L17.688 18H6.31299Z" stroke="white" stroke-width="2" stroke-linecap="round" stroke-linejoin="round"/>
</svg>
