<svg width="406" height="406" viewBox="0 0 406 406" fill="none" xmlns="http://www.w3.org/2000/svg">
<path d="M130 2.30008C130 3.60007 130.5 7.10007 131 10.1001C131.6 13.1001 135 33.2001 138.5 54.8001C143.7 86.3001 145.4 99.4001 147 120.8C148.1 135.5 149.9 159.4 151 174C152.8 198.1 153 210 153 303.2V405.8L173.3 400.5C192.3 395.6 270.8 374.9 285 371L291.5 369.3L291.8 277.4C292 202.1 291.8 181.9 290.5 165.5C289.7 154.5 288.1 133.6 287 119C285.9 104.4 284.3 83.7001 283.5 73.0001C279.4 19.9001 278 2.10007 278 1.10007C278 0.300079 256.4 6.10352e-05 204 6.10352e-05H130V2.30008ZM250.2 46.1001C254.8 63.5001 254.9 61.8001 248.8 62.4001C241.5 63.1001 174 65.3001 173.5 64.8001C173.2 64.5001 178.8 37.9001 179.3 37.4001C179.6 37.1001 245.1 35.3001 246.5 35.5001C247.1 35.6001 248.7 40.3001 250.2 46.1001ZM268.8 188.9C273.4 191.2 275.5 193.5 277.5 198.3C278.8 201.4 279 210.5 279 264.5C279 298.9 278.8 327 278.5 327C278.1 327 266.1 329.5 241.1 335C235.9 336.1 231 337 230.3 337C229.2 337 229 326 229.2 272.2C229.5 208.9 229.5 207.4 231.6 203C238 189.3 256.1 182.4 268.8 188.9ZM201.8 200.5C208 202.4 213.3 208 214.9 214.5C216.3 219.9 216.5 338.6 215.1 339.4C214 340.1 168.4 350 166.4 350C165.2 350 165 340.9 165 289.2C165 227.6 165.4 219.5 168.8 214.1C173.5 206.4 179.2 202.3 188 200.4C195.3 198.8 195.8 198.8 201.8 200.5Z" fill="white"/>
<path d="M126 10.6C126 12.2 125.1 25.6 124 40.5C122.9 55.3 121.1 80.1 120 95.5C118.9 110.9 117.1 135 116.1 149C115.1 163 114.4 174.6 114.5 174.8C114.7 175 117.5 167.1 120.8 157.3C124.1 147.5 130 130.1 133.9 118.7L141 97.9L138 78.7C128.8 19.6 127.1 8.7 126.6 8.2C126.2 7.89999 126 9 126 10.6Z" fill="white"/>
<path d="M127.3 147.4L114 187.7V281.6V375.5L130.3 388.9L146.5 402.2L146.8 295.9C147 206.8 146.8 186 145.5 168C144.7 156.2 143.3 137.8 142.6 127.2C141.8 116.5 141 107.7 140.8 107.5C140.7 107.4 134.5 125.3 127.3 147.4Z" fill="white"/>
</svg>
