<svg width="255" height="198" viewBox="0 0 255 198" fill="none" xmlns="http://www.w3.org/2000/svg">
<path d="M146.7 0.496017C145.5 0.696014 143.4 2.19601 142 3.79602C139.4 6.89601 138.9 9.69601 137.8 26.196C137.2 35.996 137.1 36.196 133.4 39.996C130.1 43.396 129.4 44.896 127.9 52.796C126.9 57.696 126.4 62.796 126.7 63.996C127 65.196 126.6 68.796 125.7 71.896C123.9 78.496 125.4 77.896 106.9 79.796C89.7 81.596 82.5 82.796 61.4 87.396C33.8 93.396 29.5 95.396 30.7 101.796C32.1 108.296 28.7 111.096 11.7 117.296C7.7 118.796 3.4 120.796 2.2 121.796L0 123.496L2.5 124.896C5.4 126.496 22.1 126.696 36.5 125.396C47.4 124.396 53.4 125.596 53.4 128.796C53.4 130.296 51.4 131.096 42.2 133.296C36 134.696 29.9 136.596 28.6 137.396C26.7 138.696 26.5 139.196 27.5 141.096C28.2 142.296 29.8 144.096 31.1 145.096C35.9 148.896 34.3 150.496 19.8 155.796C8.8 159.796 3.9 163.296 5 166.196C5.8 168.296 10.9 169.796 17.3 169.796C25.4 169.796 34.4 171.496 36.5 173.396C40 176.496 38.2 179.196 25.3 189.896C20 194.296 20.4 196.396 26.8 197.296C31.7 198.096 39.9 197.396 78.4 192.896C92.4 191.296 110.9 189.196 119.4 188.296C135.3 186.696 159.5 182.796 169.5 180.196C172.6 179.396 176.8 178.796 178.8 178.796C182.4 178.796 182.4 178.696 187.6 168.296C192.8 157.896 192.9 157.796 196.4 157.796C199.6 157.796 200.3 157.296 203.1 152.496C209.1 142.696 216.4 124.596 218 115.796C221 99.496 222.9 95.096 235.9 72.796C248.8 50.596 251.8 44.096 253.5 34.896C255.3 25.296 252.3 16.896 246.1 14.396C244.4 13.596 237.7 12.296 231.4 11.296C225.1 10.396 214.3 8.69601 207.4 7.69601C200.5 6.59602 190.2 5.09602 184.4 4.29602C178.6 3.49602 169.4 2.19601 163.9 1.29602C154 -0.203979 150.9 -0.303986 146.7 0.496017ZM172.4 7.29602C195.7 10.796 230.3 15.796 231.4 15.796C232 15.796 230.9 17.696 229.1 20.096C222.6 28.596 220.8 34.196 211.5 72.896C205.4 98.196 200.8 108.696 192.7 115.896C189.6 118.596 188.5 120.896 184.3 134.096C181.6 142.396 179.6 149.396 179.8 149.496C180 149.696 182.5 143.396 185.3 135.596C189.7 123.696 191.2 120.696 194.3 117.796C205.5 107.496 207.7 102.096 220.4 53.796C225.2 35.996 229.8 25.396 234.9 20.896C244 12.896 251.5 21.496 248.4 36.396C246.8 44.096 243.4 51.596 234.2 67.396C220.2 91.396 217.4 98.096 215.4 112.996C213.4 127.196 201 155.996 196.6 156.596C193.6 157.096 193.8 155.796 197.9 148.096C199.8 144.496 201.4 141.096 201.4 140.596C201.4 140.196 198.9 139.796 196 139.796H190.5L181.2 157.796C176.1 167.696 171.6 175.796 171.3 175.796C171 175.796 169.8 173.696 168.7 170.996C167.5 168.396 162.2 156.896 156.9 145.296C124.4 74.796 125.5 77.496 126.7 72.896C127.3 70.696 128.1 68.796 128.4 68.796C128.8 68.796 134.4 78.796 140.9 90.996C155.2 117.896 173.1 149.896 174.6 151.296C175.6 152.296 150 101.296 136.3 75.296L129.5 62.196L131.5 53.796C133.1 46.996 134.1 44.696 137.3 41.296C141.1 37.096 141.2 36.896 141.9 27.196C142.7 13.996 144.2 6.99602 146.2 5.79602C148.8 4.29602 154.5 4.59602 172.4 7.29602ZM199.4 141.496C199.4 141.996 195.4 150.196 190.5 159.796L181.6 177.296L177.4 177.596C174.3 177.796 173.3 177.596 173.6 176.596C173.7 175.896 177.9 167.496 182.7 157.996L191.5 140.796H195.4C197.6 140.796 199.4 141.096 199.4 141.496Z" fill="white"/>
<path d="M136.1 54.4959C134.7 55.7959 135.4 60.7959 136.9 60.7959C138.6 60.7959 140.4 56.9959 139.7 54.9959C139.1 53.6959 137.2 53.3959 136.1 54.4959Z" fill="white"/>
<path d="M147 73.3959C144.7 75.6959 145.3 80.2959 147.9 80.2959C150.7 80.2959 152.4 75.2959 150.2 73.1959C148.8 71.7959 148.5 71.7959 147 73.3959Z" fill="white"/>
<path d="M159.6 94.9959C158.9 95.6959 158.4 97.8959 158.4 99.9959C158.4 103.096 158.8 103.796 160.4 103.796C162.8 103.796 164.4 100.996 164.4 96.8959C164.4 94.5959 163.9 93.7959 162.6 93.7959C161.6 93.7959 160.3 94.2959 159.6 94.9959Z" fill="white"/>
<path d="M174.9 119.196C172.5 122.796 173.3 128.196 176.2 128.596C178 128.896 178.8 128.196 179.9 125.396C182.6 118.896 178.4 113.796 174.9 119.196Z" fill="white"/>
</svg>
