<svg width="24" height="25" viewBox="0 0 24 25" fill="none" xmlns="http://www.w3.org/2000/svg">
<path d="M23.2243 8.92032L16.0296 7.82536L12.8133 0.997441C12.7255 0.810497 12.581 0.659161 12.4024 0.567172C11.9547 0.335718 11.4106 0.528597 11.1868 0.997441L7.97055 7.82536L0.77582 8.92032C0.577461 8.95 0.396105 9.04792 0.257255 9.19629C0.0893918 9.37696 -0.0031083 9.62003 7.97568e-05 9.87208C0.00326781 10.1241 0.101883 10.3646 0.274257 10.5405L5.47974 15.8551L4.24992 23.3595C4.22108 23.5341 4.23953 23.7137 4.30317 23.8778C4.36681 24.042 4.47311 24.1842 4.60999 24.2883C4.74688 24.3924 4.90889 24.4542 5.07764 24.4668C5.24639 24.4794 5.41514 24.4423 5.56475 24.3596L12.0001 20.8165L18.4354 24.3596C18.6111 24.4575 18.8151 24.4901 19.0106 24.4545C19.5037 24.3655 19.8352 23.8759 19.7502 23.3595L18.5204 15.8551L23.7259 10.5405C23.8675 10.3951 23.9611 10.2052 23.9894 9.99748C24.0659 9.47819 23.7202 8.99747 23.2243 8.92032V8.92032Z" fill="#FFC700"/>
</svg>
