<svg width="256" height="256" viewBox="0 0 256 256" fill="none" xmlns="http://www.w3.org/2000/svg">
<path d="M245.4 61.3L196 33.1C194.787 32.388 193.407 32.0086 192 32H160C157.878 32 155.843 32.8429 154.343 34.3431C152.843 35.8434 152 37.8783 152 40C152 46.3652 149.471 52.4697 144.971 56.9706C140.47 61.4714 134.365 64 128 64C121.635 64 115.53 61.4714 111.029 56.9706C106.529 52.4697 104 46.3652 104 40C104 37.8783 103.157 35.8434 101.657 34.3431C100.157 32.8429 98.1217 32 96 32H64C62.5931 32.0086 61.2134 32.388 60 33.1L10.6 61.3C7.03806 63.3064 4.3858 66.6076 3.19401 70.5182C2.00223 74.4287 2.36249 78.6481 4.19998 82.3L22.6 119.2C23.9342 121.848 25.9778 124.073 28.5029 125.627C31.0279 127.18 33.9351 128.002 36.9 128H56V208C56 212.243 57.6857 216.313 60.6863 219.314C63.6869 222.314 67.7565 224 72 224H184C188.243 224 192.313 222.314 195.314 219.314C198.314 216.313 200 212.243 200 208V128H219.1C222.065 128.002 224.972 127.18 227.497 125.627C230.022 124.073 232.066 121.848 233.4 119.2L251.8 82.3C253.637 78.6481 253.998 74.4287 252.806 70.5182C251.614 66.6076 248.962 63.3064 245.4 61.3ZM36.9 112L18.5 75.2L56 53.8V112H36.9ZM219.1 112H200V53.8L237.5 75.2L219.1 112Z" fill="white"/>
</svg>
